<svg xmlns="http://www.w3.org/2000/svg" xmlns:xlink="http://www.w3.org/1999/xlink" width="500" zoomAndPan="magnify" viewBox="0 0 375 374.999991" height="500" preserveAspectRatio="xMidYMid meet" version="1.0"><defs><g/><clipPath id="e394ba32d7"><path d="M 53 62 L 334 62 L 334 342 L 53 342 Z M 53 62 " clip-rule="nonzero"/></clipPath><clipPath id="ed767f17c5"><path d="M 240.027344 9.433594 L 354.953125 197.617188 L 115.5625 343.8125 L 0.640625 155.628906 Z M 240.027344 9.433594 " clip-rule="nonzero"/></clipPath><clipPath id="e42e4be95e"><path d="M 240.027344 9.433594 L 386.226562 248.820312 L 146.835938 395.019531 L 0.640625 155.628906 Z M 240.027344 9.433594 " clip-rule="nonzero"/></clipPath><clipPath id="7b0839bef1"><path d="M 105 130 L 375 130 L 375 375 L 105 375 Z M 105 130 " clip-rule="nonzero"/></clipPath><clipPath id="edaba4018c"><path d="M 105.871094 327.847656 L 314.8125 129.230469 L 392.324219 210.769531 L 183.382812 409.386719 Z M 105.871094 327.847656 " clip-rule="nonzero"/></clipPath><clipPath id="0ab956511f"><path d="M 105.871094 327.847656 L 314.007812 129.996094 L 391.515625 211.535156 L 183.382812 409.386719 Z M 105.871094 327.847656 " clip-rule="nonzero"/></clipPath><clipPath id="78985f7306"><path d="M 248.695312 225.460938 L 261.882812 225.460938 L 261.882812 238.648438 L 248.695312 238.648438 Z M 248.695312 225.460938 " clip-rule="nonzero"/></clipPath><clipPath id="286dd02f5e"><path d="M 255.289062 225.460938 C 251.648438 225.460938 248.695312 228.414062 248.695312 232.054688 C 248.695312 235.695312 251.648438 238.648438 255.289062 238.648438 C 258.933594 238.648438 261.882812 235.695312 261.882812 232.054688 C 261.882812 228.414062 258.933594 225.460938 255.289062 225.460938 " clip-rule="nonzero"/></clipPath></defs><g clip-path="url(#e394ba32d7)"><g clip-path="url(#ed767f17c5)"><g clip-path="url(#e42e4be95e)"><path fill="#000000" d="M 230.09375 334.003906 C 217.90625 337.28125 205.273438 338.632812 192.734375 338.398438 C 182.488281 338.136719 172.285156 336.953125 162.300781 334.722656 C 160.964844 334.464844 159.660156 334.058594 158.34375 333.71875 C 157.03125 333.359375 155.707031 333.035156 154.402344 332.644531 L 150.507812 331.414062 L 148.5625 330.796875 L 146.644531 330.09375 L 142.808594 328.699219 C 141.539062 328.207031 140.289062 327.664062 139.027344 327.152344 C 136.488281 326.167969 134.042969 324.960938 131.5625 323.835938 C 131.203125 323.675781 130.832031 323.5 130.441406 323.324219 C 130.0625 323.125 129.667969 322.917969 129.253906 322.703125 C 128.433594 322.273438 127.550781 321.808594 126.613281 321.316406 C 124.707031 320.367188 122.6875 319.105469 120.445312 317.777344 C 119.890625 317.441406 119.308594 317.113281 118.742188 316.746094 C 118.175781 316.371094 117.601562 315.988281 117.015625 315.59375 C 115.84375 314.8125 114.632812 314 113.378906 313.164062 C 110.984375 311.34375 108.339844 309.535156 105.808594 307.347656 C 95.355469 298.984375 84.765625 287.054688 76.496094 273.640625 C 68.339844 260.15625 62.5625 245.285156 59.898438 232.171875 C 59.105469 228.917969 58.707031 225.742188 58.179688 222.777344 C 58.007812 221.28125 57.839844 219.832031 57.675781 218.433594 C 57.597656 217.734375 57.519531 217.046875 57.441406 216.371094 C 57.371094 215.699219 57.347656 215.03125 57.300781 214.382812 C 57.144531 211.785156 56.945312 209.410156 56.972656 207.285156 C 56.960938 206.222656 56.953125 205.222656 56.945312 204.296875 C 56.941406 203.835938 56.9375 203.386719 56.933594 202.957031 C 56.953125 202.53125 56.96875 202.121094 56.988281 201.730469 C 57.3125 191.5 58.558594 181.3125 60.859375 171.34375 C 63.414062 160.75 67.261719 150.5 71.972656 140.660156 C 77.488281 129.394531 84.460938 118.773438 92.941406 109.425781 C 101.308594 99.976562 111.226562 91.917969 121.976562 85.222656 C 132.84375 78.714844 144.542969 73.574219 156.769531 70.445312 C 168.957031 67.171875 181.589844 65.820312 194.128906 66.054688 C 204.375 66.316406 214.578125 67.496094 224.5625 69.726562 C 225.902344 69.988281 227.203125 70.394531 228.519531 70.730469 C 229.835938 71.09375 231.160156 71.414062 232.460938 71.804688 L 236.355469 73.039062 L 238.304688 73.652344 L 240.21875 74.355469 L 244.058594 75.75 C 245.328125 76.242188 246.574219 76.789062 247.835938 77.300781 C 250.378906 78.28125 252.820312 79.488281 255.304688 80.613281 C 255.660156 80.777344 256.03125 80.949219 256.421875 81.128906 C 256.800781 81.328125 257.195312 81.53125 257.609375 81.746094 C 258.429688 82.179688 259.3125 82.644531 260.25 83.136719 C 262.15625 84.082031 264.175781 85.347656 266.417969 86.671875 C 266.972656 87.011719 267.554688 87.335938 268.125 87.707031 C 268.6875 88.082031 269.261719 88.464844 269.851562 88.855469 C 271.019531 89.640625 272.234375 90.453125 273.484375 91.289062 C 275.878906 93.109375 278.527344 94.917969 281.058594 97.105469 C 291.507812 105.464844 302.101562 117.394531 310.371094 130.8125 C 318.527344 144.292969 324.304688 159.164062 326.96875 172.28125 C 327.757812 175.53125 328.160156 178.710938 328.683594 181.675781 C 328.859375 183.171875 329.023438 184.621094 329.1875 186.019531 C 329.269531 186.71875 329.347656 187.40625 329.421875 188.078125 C 329.492188 188.753906 329.515625 189.417969 329.5625 190.066406 C 329.71875 192.667969 329.921875 195.042969 329.894531 197.167969 C 329.902344 198.230469 329.914062 199.226562 329.921875 200.152344 C 329.925781 200.617188 329.929688 201.0625 329.929688 201.492188 C 329.910156 201.921875 329.894531 202.332031 329.878906 202.722656 C 329.550781 212.953125 328.304688 223.136719 326.003906 233.105469 C 323.453125 243.703125 319.601562 253.953125 314.890625 263.792969 C 309.375 275.058594 302.402344 285.679688 293.921875 295.023438 C 285.554688 304.472656 275.640625 312.535156 264.886719 319.230469 C 254.019531 325.738281 242.320312 330.875 230.09375 334.003906 Z M 266.609375 321.871094 L 266.617188 321.863281 C 277.59375 315.023438 287.730469 306.796875 296.296875 297.148438 C 304.96875 287.605469 312.105469 276.75 317.707031 265.21875 L 320.238281 259.777344 C 320.238281 259.777344 320.886719 258.253906 321.855469 255.972656 C 322.886719 253.714844 323.945312 250.582031 325.113281 247.492188 C 326.085938 244.335938 327.175781 241.214844 327.742188 238.800781 C 328.378906 236.40625 328.800781 234.808594 328.800781 234.808594 C 328.800781 234.808594 328.902344 234.410156 329.054688 233.703125 C 329.214844 233 329.441406 231.992188 329.710938 230.785156 C 330.3125 228.378906 330.820312 225.117188 331.398438 221.863281 C 331.636719 220.230469 331.816406 218.589844 332.015625 217.054688 C 332.113281 216.285156 332.203125 215.542969 332.292969 214.839844 C 332.347656 214.132812 332.398438 213.464844 332.445312 212.847656 C 332.636719 210.378906 332.761719 208.730469 332.761719 208.730469 C 332.761719 208.730469 332.8125 208.359375 332.828125 207.796875 C 332.847656 207.234375 332.878906 206.488281 332.914062 205.738281 C 332.976562 204.238281 333.035156 202.742188 333.035156 202.742188 C 333.054688 202.339844 333.074219 201.921875 333.09375 201.484375 C 333.09375 201.042969 333.089844 200.585938 333.089844 200.113281 C 333.082031 199.164062 333.074219 198.144531 333.066406 197.058594 C 333.097656 194.882812 332.898438 192.453125 332.742188 189.789062 C 332.695312 189.125 332.667969 188.445312 332.601562 187.753906 C 332.523438 187.066406 332.441406 186.359375 332.363281 185.644531 C 332.199219 184.214844 332.027344 182.730469 331.851562 181.195312 C 331.320312 178.164062 330.90625 174.910156 330.101562 171.578125 C 327.382812 158.152344 321.476562 142.921875 313.125 129.128906 C 304.667969 115.398438 293.816406 103.1875 283.113281 94.636719 C 280.515625 92.402344 277.808594 90.546875 275.355469 88.6875 C 274.074219 87.832031 272.832031 87.003906 271.632812 86.203125 C 271.03125 85.804688 270.441406 85.410156 269.863281 85.027344 C 269.28125 84.652344 268.6875 84.316406 268.117188 83.972656 C 265.820312 82.617188 263.75 81.328125 261.800781 80.363281 C 260.839844 79.859375 259.933594 79.390625 259.09375 78.949219 C 258.671875 78.730469 258.265625 78.519531 257.878906 78.320312 C 257.476562 78.136719 257.09375 77.960938 256.730469 77.792969 C 256.730469 77.792969 255.371094 77.164062 254.007812 76.535156 C 253.328125 76.222656 252.648438 75.910156 252.136719 75.675781 C 251.632812 75.429688 251.277344 75.304688 251.277344 75.304688 C 251.277344 75.304688 249.753906 74.664062 247.472656 73.707031 C 246.898438 73.464844 246.28125 73.207031 245.628906 72.933594 C 244.960938 72.6875 244.257812 72.429688 243.53125 72.164062 C 242.074219 71.640625 240.53125 71.054688 238.96875 70.519531 C 235.8125 69.550781 232.679688 68.507812 230.261719 67.949219 C 229.066406 67.636719 228.066406 67.378906 227.367188 67.195312 C 226.667969 67.011719 226.265625 66.917969 226.265625 66.917969 C 226.265625 66.917969 224.65625 66.566406 222.234375 66.035156 C 219.828125 65.4375 216.554688 64.984375 213.300781 64.40625 C 210.019531 64.035156 206.746094 63.542969 204.265625 63.433594 C 201.792969 63.253906 200.144531 63.132812 200.144531 63.132812 L 194.148438 62.898438 C 181.332031 62.617188 168.414062 64.007812 155.964844 67.363281 C 143.46875 70.578125 131.519531 75.839844 120.425781 82.480469 L 120.414062 82.484375 L 120.335938 82.53125 L 120.253906 82.582031 L 120.246094 82.589844 C 109.269531 89.425781 99.132812 97.65625 90.566406 107.300781 C 81.894531 116.84375 74.761719 127.703125 69.160156 139.230469 L 66.628906 144.675781 C 66.628906 144.675781 65.980469 146.195312 65.011719 148.476562 C 63.976562 150.734375 62.921875 153.871094 61.753906 156.960938 C 60.777344 160.117188 59.6875 163.238281 59.121094 165.652344 C 58.488281 168.046875 58.066406 169.640625 58.066406 169.640625 C 58.066406 169.640625 57.964844 170.042969 57.808594 170.746094 C 57.652344 171.453125 57.425781 172.457031 57.15625 173.667969 C 56.550781 176.070312 56.046875 179.335938 55.46875 182.585938 C 55.230469 184.21875 55.046875 185.859375 54.847656 187.394531 C 54.753906 188.164062 54.660156 188.90625 54.574219 189.609375 C 54.519531 190.316406 54.46875 190.988281 54.417969 191.605469 C 54.230469 194.074219 54.101562 195.71875 54.101562 195.71875 C 54.101562 195.71875 54.050781 196.09375 54.039062 196.652344 C 54.015625 197.214844 53.984375 197.964844 53.953125 198.714844 C 53.890625 200.210938 53.828125 201.710938 53.828125 201.710938 C 53.808594 202.109375 53.789062 202.53125 53.769531 202.96875 C 53.769531 203.40625 53.773438 203.863281 53.777344 204.339844 C 53.78125 205.289062 53.789062 206.308594 53.796875 207.394531 C 53.765625 209.570312 53.96875 212 54.125 214.660156 C 54.171875 215.324219 54.195312 216.007812 54.265625 216.695312 C 54.34375 217.386719 54.421875 218.089844 54.5 218.804688 C 54.667969 220.238281 54.835938 221.722656 55.011719 223.253906 C 55.546875 226.289062 55.957031 229.539062 56.761719 232.871094 C 59.480469 246.296875 65.390625 261.53125 73.738281 275.324219 C 82.195312 289.050781 93.050781 301.261719 103.753906 309.816406 C 106.347656 312.050781 109.054688 313.902344 111.511719 315.761719 C 112.792969 316.617188 114.035156 317.449219 115.234375 318.25 C 115.832031 318.648438 116.421875 319.039062 117 319.421875 C 117.582031 319.800781 118.179688 320.132812 118.75 320.480469 C 121.042969 321.832031 123.113281 323.121094 125.0625 324.089844 C 126.027344 324.589844 126.929688 325.0625 127.773438 325.503906 C 128.191406 325.722656 128.597656 325.933594 128.988281 326.132812 C 129.386719 326.316406 129.769531 326.492188 130.132812 326.65625 C 130.132812 326.65625 131.496094 327.285156 132.855469 327.914062 C 133.539062 328.226562 134.21875 328.542969 134.726562 328.777344 C 135.234375 329.023438 135.585938 329.148438 135.585938 329.148438 C 135.585938 329.148438 137.109375 329.785156 139.394531 330.746094 C 139.964844 330.984375 140.582031 331.246094 141.238281 331.519531 C 141.902344 331.761719 142.605469 332.019531 143.332031 332.285156 C 144.789062 332.808594 146.332031 333.398438 147.894531 333.929688 C 151.050781 334.902344 154.183594 335.941406 156.601562 336.503906 C 157.800781 336.816406 158.796875 337.074219 159.496094 337.253906 C 160.195312 337.441406 160.597656 337.53125 160.597656 337.53125 C 160.597656 337.53125 162.210938 337.886719 164.628906 338.414062 C 167.035156 339.011719 170.308594 339.46875 173.5625 340.042969 C 176.847656 340.417969 180.117188 340.910156 182.597656 341.019531 C 185.070312 341.199219 186.71875 341.316406 186.71875 341.316406 L 192.71875 341.550781 C 205.53125 341.832031 218.449219 340.445312 230.902344 337.089844 C 243.394531 333.871094 255.34375 328.613281 266.441406 321.96875 L 266.449219 321.96875 L 266.53125 321.921875 L 266.609375 321.871094 " fill-opacity="1" fill-rule="nonzero"/></g></g></g><g clip-path="url(#7b0839bef1)"><g clip-path="url(#edaba4018c)"><g clip-path="url(#0ab956511f)"><path fill="#ffffff" d="M 105.871094 327.847656 L 313.539062 130.441406 L 391.050781 211.980469 L 183.382812 409.386719 Z M 105.871094 327.847656 " fill-opacity="1" fill-rule="nonzero"/></g></g></g><g clip-path="url(#78985f7306)"><g clip-path="url(#286dd02f5e)"><path fill="#000000" d="M 248.695312 225.460938 L 261.882812 225.460938 L 261.882812 238.648438 L 248.695312 238.648438 Z M 248.695312 225.460938 " fill-opacity="1" fill-rule="nonzero"/></g></g><g fill="#000000" fill-opacity="1"><g transform="translate(127.085731, 329.275187)"><g><path d="M 4.03125 -7.21875 C 4.4375 -8.125 5 -8.941406 5.71875 -9.671875 C 6.445312 -10.410156 7.28125 -10.984375 8.21875 -11.390625 C 9.15625 -11.804688 10.171875 -12.023438 11.265625 -12.046875 C 12.359375 -12.078125 13.484375 -11.832031 14.640625 -11.3125 C 16.003906 -10.695312 17.050781 -9.863281 17.78125 -8.8125 C 18.507812 -7.769531 18.894531 -6.660156 18.9375 -5.484375 L 16.046875 -4.953125 C 16.046875 -5.453125 15.96875 -5.90625 15.8125 -6.3125 C 15.664062 -6.726562 15.46875 -7.09375 15.21875 -7.40625 C 14.976562 -7.71875 14.703125 -7.988281 14.390625 -8.21875 C 14.078125 -8.445312 13.753906 -8.632812 13.421875 -8.78125 C 12.691406 -9.113281 11.992188 -9.253906 11.328125 -9.203125 C 10.671875 -9.160156 10.0625 -8.988281 9.5 -8.6875 C 8.9375 -8.382812 8.425781 -7.972656 7.96875 -7.453125 C 7.519531 -6.941406 7.164062 -6.394531 6.90625 -5.8125 C 6.613281 -5.15625 6.4375 -4.476562 6.375 -3.78125 C 6.3125 -3.082031 6.367188 -2.414062 6.546875 -1.78125 C 6.722656 -1.15625 7.015625 -0.582031 7.421875 -0.0625 C 7.828125 0.445312 8.347656 0.847656 8.984375 1.140625 C 9.328125 1.285156 9.695312 1.398438 10.09375 1.484375 C 10.488281 1.578125 10.882812 1.601562 11.28125 1.5625 C 11.6875 1.53125 12.09375 1.429688 12.5 1.265625 C 12.914062 1.109375 13.300781 0.863281 13.65625 0.53125 L 15.40625 2.953125 C 14.914062 3.398438 14.351562 3.738281 13.71875 3.96875 C 13.09375 4.195312 12.4375 4.332031 11.75 4.375 C 11.0625 4.414062 10.375 4.367188 9.6875 4.234375 C 9 4.109375 8.351562 3.914062 7.75 3.65625 C 6.6875 3.175781 5.820312 2.515625 5.15625 1.671875 C 4.488281 0.835938 4 -0.078125 3.6875 -1.078125 C 3.375 -2.085938 3.242188 -3.125 3.296875 -4.1875 C 3.347656 -5.257812 3.59375 -6.269531 4.03125 -7.21875 Z M 4.03125 -7.21875 "/></g></g></g><g fill="#000000" fill-opacity="1"><g transform="translate(151.185831, 339.116007)"><g><path d="M 10.078125 -14.21875 L 12.765625 -13.53125 L 14.8125 3.71875 L 11.671875 2.9375 L 11.1875 -1.359375 L 5.6875 -2.734375 L 3.265625 0.8125 L 0.109375 0.03125 Z M 11.171875 -3.65625 L 10.546875 -10.390625 L 6.75 -4.765625 Z M 11.171875 -3.65625 "/></g></g></g><g fill="#000000" fill-opacity="1"><g transform="translate(176.289687, 344.448932)"><g><path d="M 12.21875 -11.109375 C 12.125 -11.210938 11.941406 -11.363281 11.671875 -11.5625 C 11.410156 -11.769531 11.082031 -11.976562 10.6875 -12.1875 C 10.289062 -12.394531 9.863281 -12.578125 9.40625 -12.734375 C 8.945312 -12.890625 8.476562 -12.988281 8 -13.03125 C 7.125 -13.09375 6.457031 -12.976562 6 -12.6875 C 5.550781 -12.40625 5.304688 -11.972656 5.265625 -11.390625 C 5.242188 -11.054688 5.304688 -10.769531 5.453125 -10.53125 C 5.597656 -10.300781 5.816406 -10.085938 6.109375 -9.890625 C 6.398438 -9.703125 6.769531 -9.523438 7.21875 -9.359375 C 7.675781 -9.191406 8.203125 -9.003906 8.796875 -8.796875 C 9.566406 -8.535156 10.265625 -8.253906 10.890625 -7.953125 C 11.523438 -7.660156 12.050781 -7.316406 12.46875 -6.921875 C 12.894531 -6.535156 13.210938 -6.078125 13.421875 -5.546875 C 13.628906 -5.015625 13.703125 -4.375 13.640625 -3.625 C 13.578125 -2.757812 13.359375 -2.03125 12.984375 -1.4375 C 12.609375 -0.851562 12.128906 -0.390625 11.546875 -0.046875 C 10.960938 0.285156 10.300781 0.515625 9.5625 0.640625 C 8.820312 0.765625 8.0625 0.796875 7.28125 0.734375 C 6.0625 0.640625 4.875 0.363281 3.71875 -0.09375 C 2.5625 -0.550781 1.535156 -1.148438 0.640625 -1.890625 L 2.234375 -4.484375 C 2.367188 -4.335938 2.601562 -4.140625 2.9375 -3.890625 C 3.269531 -3.640625 3.671875 -3.382812 4.140625 -3.125 C 4.617188 -2.875 5.148438 -2.648438 5.734375 -2.453125 C 6.316406 -2.265625 6.921875 -2.148438 7.546875 -2.109375 C 9.273438 -1.972656 10.179688 -2.457031 10.265625 -3.5625 C 10.285156 -3.90625 10.207031 -4.207031 10.03125 -4.46875 C 9.851562 -4.726562 9.585938 -4.960938 9.234375 -5.171875 C 8.890625 -5.378906 8.460938 -5.578125 7.953125 -5.765625 C 7.441406 -5.960938 6.878906 -6.175781 6.265625 -6.40625 C 5.492188 -6.675781 4.832031 -6.957031 4.28125 -7.25 C 3.726562 -7.550781 3.273438 -7.882812 2.921875 -8.25 C 2.578125 -8.613281 2.328125 -9.023438 2.171875 -9.484375 C 2.015625 -9.953125 1.960938 -10.5 2.015625 -11.125 C 2.078125 -11.945312 2.28125 -12.664062 2.625 -13.28125 C 2.976562 -13.894531 3.4375 -14.394531 4 -14.78125 C 4.570312 -15.164062 5.222656 -15.441406 5.953125 -15.609375 C 6.691406 -15.773438 7.472656 -15.828125 8.296875 -15.765625 C 9.421875 -15.679688 10.453125 -15.421875 11.390625 -14.984375 C 12.328125 -14.554688 13.132812 -14.070312 13.8125 -13.53125 Z M 12.21875 -11.109375 "/></g></g></g><g fill="#000000" fill-opacity="1"><g transform="translate(200.558481, 345.410116)"><g><path d="M 10.21875 -12.984375 C 10.101562 -13.078125 9.894531 -13.203125 9.59375 -13.359375 C 9.300781 -13.515625 8.945312 -13.660156 8.53125 -13.796875 C 8.113281 -13.929688 7.660156 -14.035156 7.171875 -14.109375 C 6.679688 -14.179688 6.195312 -14.195312 5.71875 -14.15625 C 4.84375 -14.070312 4.207031 -13.851562 3.8125 -13.5 C 3.425781 -13.15625 3.257812 -12.691406 3.3125 -12.109375 C 3.34375 -11.773438 3.445312 -11.503906 3.625 -11.296875 C 3.8125 -11.085938 4.0625 -10.910156 4.375 -10.765625 C 4.695312 -10.628906 5.09375 -10.515625 5.5625 -10.421875 C 6.039062 -10.328125 6.59375 -10.234375 7.21875 -10.140625 C 8.019531 -10.003906 8.753906 -9.84375 9.421875 -9.65625 C 10.097656 -9.476562 10.675781 -9.226562 11.15625 -8.90625 C 11.632812 -8.582031 12.015625 -8.175781 12.296875 -7.6875 C 12.585938 -7.195312 12.769531 -6.582031 12.84375 -5.84375 C 12.914062 -4.976562 12.816406 -4.222656 12.546875 -3.578125 C 12.285156 -2.929688 11.894531 -2.394531 11.375 -1.96875 C 10.851562 -1.539062 10.238281 -1.203125 9.53125 -0.953125 C 8.832031 -0.710938 8.085938 -0.554688 7.296875 -0.484375 C 6.085938 -0.367188 4.875 -0.441406 3.65625 -0.703125 C 2.4375 -0.960938 1.328125 -1.378906 0.328125 -1.953125 L 1.453125 -4.796875 C 1.609375 -4.671875 1.875 -4.515625 2.25 -4.328125 C 2.625 -4.140625 3.066406 -3.957031 3.578125 -3.78125 C 4.085938 -3.601562 4.640625 -3.46875 5.234375 -3.375 C 5.835938 -3.28125 6.453125 -3.257812 7.078125 -3.3125 C 8.804688 -3.46875 9.625 -4.101562 9.53125 -5.21875 C 9.5 -5.5625 9.367188 -5.84375 9.140625 -6.0625 C 8.921875 -6.289062 8.625 -6.476562 8.25 -6.625 C 7.875 -6.78125 7.414062 -6.90625 6.875 -7 C 6.34375 -7.101562 5.753906 -7.222656 5.109375 -7.359375 C 4.316406 -7.492188 3.625 -7.660156 3.03125 -7.859375 C 2.4375 -8.066406 1.9375 -8.320312 1.53125 -8.625 C 1.125 -8.925781 0.804688 -9.289062 0.578125 -9.71875 C 0.347656 -10.15625 0.203125 -10.6875 0.140625 -11.3125 C 0.0664062 -12.132812 0.148438 -12.875 0.390625 -13.53125 C 0.628906 -14.195312 1 -14.769531 1.5 -15.25 C 2 -15.726562 2.59375 -16.109375 3.28125 -16.390625 C 3.976562 -16.671875 4.738281 -16.851562 5.5625 -16.9375 C 6.695312 -17.039062 7.757812 -16.953125 8.75 -16.671875 C 9.75 -16.398438 10.625 -16.054688 11.375 -15.640625 Z M 10.21875 -12.984375 "/></g></g></g><g fill="#000000" fill-opacity="1"><g transform="translate(224.693647, 342.364039)"><g><path d="M 1.875 -17.3125 L 4.5625 -18.03125 L 14.734375 -3.96875 L 11.625 -3.125 L 9.109375 -6.640625 L 3.625 -5.171875 L 3.25 -0.875 L 0.109375 -0.03125 Z M 7.96875 -8.625 L 4.15625 -14.203125 L 3.5625 -7.4375 Z M 7.96875 -8.625 "/></g></g></g><g fill="#000000" fill-opacity="1"><g transform="translate(249.333614, 334.837377)"><g><path d="M -0.125 -11.484375 L 4.375 -2.09375 L 1.515625 -0.734375 L -5.5 -15.375 L -3.28125 -16.421875 L 8.953125 -10.46875 L 4.359375 -20.046875 L 7.203125 -21.40625 L 14.203125 -6.796875 L 11.890625 -5.703125 Z M -0.125 -11.484375 "/></g></g></g><g fill="#000000" fill-opacity="1"><g transform="translate(273.997909, 321.884788)"><g><path d="M 1.359375 -1 L -8.25 -14.078125 L -3.484375 -17.578125 C -2.421875 -18.359375 -1.359375 -18.875 -0.296875 -19.125 C 0.753906 -19.375 1.765625 -19.398438 2.734375 -19.203125 C 3.710938 -19.003906 4.625 -18.609375 5.46875 -18.015625 C 6.320312 -17.429688 7.078125 -16.691406 7.734375 -15.796875 C 8.472656 -14.796875 8.984375 -13.78125 9.265625 -12.75 C 9.554688 -11.726562 9.628906 -10.722656 9.484375 -9.734375 C 9.335938 -8.753906 8.984375 -7.816406 8.421875 -6.921875 C 7.867188 -6.023438 7.101562 -5.21875 6.125 -4.5 Z M 5.171875 -13.90625 C 4.722656 -14.519531 4.21875 -15.03125 3.65625 -15.4375 C 3.09375 -15.84375 2.503906 -16.113281 1.890625 -16.25 C 1.273438 -16.382812 0.644531 -16.378906 0 -16.234375 C -0.632812 -16.097656 -1.253906 -15.804688 -1.859375 -15.359375 L -4.078125 -13.734375 L 2.265625 -5.109375 L 4.484375 -6.734375 C 5.097656 -7.191406 5.566406 -7.707031 5.890625 -8.28125 C 6.222656 -8.851562 6.40625 -9.453125 6.4375 -10.078125 C 6.476562 -10.703125 6.390625 -11.34375 6.171875 -12 C 5.960938 -12.65625 5.628906 -13.289062 5.171875 -13.90625 Z M 5.171875 -13.90625 "/></g></g></g><g fill="#000000" fill-opacity="1"><g transform="translate(294.936638, 305.273669)"><g><path d="M 1.15625 -1.21875 L -10.640625 -12.375 L -5.703125 -17.609375 C -5.191406 -18.140625 -4.601562 -18.53125 -3.9375 -18.78125 C -3.269531 -19.03125 -2.59375 -19.144531 -1.90625 -19.125 C -1.226562 -19.101562 -0.566406 -18.960938 0.078125 -18.703125 C 0.734375 -18.441406 1.300781 -18.082031 1.78125 -17.625 C 2.53125 -16.914062 3.039062 -16.070312 3.3125 -15.09375 C 3.582031 -14.113281 3.546875 -13.171875 3.203125 -12.265625 L 10.171875 -10.765625 L 7.734375 -8.1875 L 1.515625 -9.515625 L -0.625 -7.25 L 3.328125 -3.515625 Z M -2.625 -9.15625 L 0.09375 -12.03125 C 0.289062 -12.238281 0.421875 -12.476562 0.484375 -12.75 C 0.554688 -13.03125 0.566406 -13.316406 0.515625 -13.609375 C 0.472656 -13.910156 0.375 -14.207031 0.21875 -14.5 C 0.0703125 -14.800781 -0.128906 -15.078125 -0.390625 -15.328125 C -0.671875 -15.597656 -0.96875 -15.796875 -1.28125 -15.921875 C -1.601562 -16.054688 -1.921875 -16.128906 -2.234375 -16.140625 C -2.554688 -16.148438 -2.851562 -16.101562 -3.125 -16 C -3.40625 -15.894531 -3.640625 -15.738281 -3.828125 -15.53125 L -6.453125 -12.765625 Z M -2.625 -9.15625 "/></g></g></g><g fill="#000000" fill-opacity="1"><g transform="translate(311.821773, 286.11084)"><g><path d="M -10.09375 -14.1875 L -8.5625 -16.515625 L 8.390625 -12.75 L 6.609375 -10.046875 L 2.40625 -11 L -0.71875 -6.265625 L 1.84375 -2.8125 L 0.0625 -0.09375 Z M 0.234375 -11.734375 L -6.328125 -13.390625 L -2.28125 -7.921875 Z M 0.234375 -11.734375 "/></g></g></g><g fill="#000000" fill-opacity="1"><g transform="translate(324.912516, 264.299222)"><g/></g></g><g fill="#000000" fill-opacity="1"><g transform="translate(331.203884, 250.058369)"><g><path d="M -8 -14.4375 C -8.132812 -14.375 -8.332031 -14.234375 -8.59375 -14.015625 C -8.851562 -13.796875 -9.128906 -13.519531 -9.421875 -13.1875 C -9.710938 -12.851562 -9.984375 -12.476562 -10.234375 -12.0625 C -10.492188 -11.644531 -10.695312 -11.207031 -10.84375 -10.75 C -11.113281 -9.914062 -11.160156 -9.25 -10.984375 -8.75 C -10.804688 -8.25 -10.4375 -7.910156 -9.875 -7.734375 C -9.5625 -7.640625 -9.273438 -7.632812 -9.015625 -7.71875 C -8.753906 -7.8125 -8.492188 -7.976562 -8.234375 -8.21875 C -7.984375 -8.457031 -7.722656 -8.773438 -7.453125 -9.171875 C -7.179688 -9.578125 -6.882812 -10.046875 -6.5625 -10.578125 C -6.125 -11.265625 -5.6875 -11.882812 -5.25 -12.4375 C -4.820312 -12.988281 -4.367188 -13.421875 -3.890625 -13.734375 C -3.410156 -14.046875 -2.890625 -14.238281 -2.328125 -14.3125 C -1.765625 -14.394531 -1.125 -14.320312 -0.40625 -14.09375 C 0.414062 -13.832031 1.070312 -13.453125 1.5625 -12.953125 C 2.050781 -12.460938 2.390625 -11.894531 2.578125 -11.25 C 2.773438 -10.601562 2.847656 -9.90625 2.796875 -9.15625 C 2.753906 -8.414062 2.613281 -7.664062 2.375 -6.90625 C 2.007812 -5.75 1.472656 -4.660156 0.765625 -3.640625 C 0.0546875 -2.617188 -0.753906 -1.757812 -1.671875 -1.0625 L -3.859375 -3.1875 C -3.679688 -3.289062 -3.429688 -3.476562 -3.109375 -3.75 C -2.796875 -4.019531 -2.460938 -4.351562 -2.109375 -4.75 C -1.753906 -5.15625 -1.410156 -5.617188 -1.078125 -6.140625 C -0.753906 -6.660156 -0.5 -7.21875 -0.3125 -7.8125 C 0.207031 -9.46875 -0.0625 -10.460938 -1.125 -10.796875 C -1.457031 -10.898438 -1.769531 -10.894531 -2.0625 -10.78125 C -2.351562 -10.664062 -2.640625 -10.460938 -2.921875 -10.171875 C -3.210938 -9.878906 -3.507812 -9.507812 -3.8125 -9.0625 C -4.113281 -8.613281 -4.445312 -8.113281 -4.8125 -7.5625 C -5.25 -6.875 -5.671875 -6.296875 -6.078125 -5.828125 C -6.492188 -5.359375 -6.921875 -4.992188 -7.359375 -4.734375 C -7.796875 -4.472656 -8.253906 -4.320312 -8.734375 -4.28125 C -9.222656 -4.238281 -9.769531 -4.316406 -10.375 -4.515625 C -11.15625 -4.753906 -11.804688 -5.113281 -12.328125 -5.59375 C -12.847656 -6.070312 -13.234375 -6.632812 -13.484375 -7.28125 C -13.734375 -7.925781 -13.851562 -8.625 -13.84375 -9.375 C -13.832031 -10.132812 -13.703125 -10.90625 -13.453125 -11.6875 C -13.117188 -12.769531 -12.632812 -13.710938 -12 -14.515625 C -11.363281 -15.328125 -10.707031 -16 -10.03125 -16.53125 Z M -8 -14.4375 "/></g></g></g><g fill="#000000" fill-opacity="1"><g transform="translate(337.877161, 226.531512)"><g><path d="M 1.765625 -14.8125 L -8.90625 -16.078125 L -1.46875 -11 L -1.671875 -9.296875 L -10.09375 -6.078125 L 0.578125 -4.8125 L 0.203125 -1.671875 L -15.921875 -3.59375 L -15.53125 -6.96875 L -5.78125 -10.640625 L -14.390625 -16.53125 L -13.984375 -19.875 L 2.140625 -17.953125 Z M 1.765625 -14.8125 "/></g></g></g><g fill="#000000" fill-opacity="1"><g transform="translate(340.070017, 196.639958)"><g><path d="M -0.078125 -1.6875 L -16.296875 -1 L -16.421875 -4.15625 L -0.203125 -4.84375 Z M -0.078125 -1.6875 "/></g></g></g><g fill="#000000" fill-opacity="1"><g transform="translate(338.928592, 180.030808)"><g><path d="M -15.75 -11.15625 L -14.8125 -6.0625 L -1.5625 -8.5 L -1 -5.421875 L -14.25 -2.984375 L -13.3125 2.125 L -16.03125 2.625 L -18.46875 -10.65625 Z M -15.75 -11.15625 "/></g></g></g><g fill="#000000" fill-opacity="1"><g transform="translate(333.705857, 156.07898)"><g><path d="M -20.59375 -8.640625 L -5.40625 -14.359375 L -4.296875 -11.421875 L -10.78125 -8.984375 L -8.1875 -2.09375 L -1.703125 -4.53125 L -0.59375 -1.578125 L -15.78125 4.140625 L -16.890625 1.1875 L -10.75 -1.125 L -13.34375 -8.015625 L -19.484375 -5.703125 Z M -20.59375 -8.640625 "/></g></g></g><g fill="#000000" fill-opacity="1"><g transform="translate(104.167875, 239.999984)"><g><path d="M 75.945312 -15.992188 C 74.234375 -15.992188 72.183594 -15.308594 71.070312 -13.941406 C 65.941406 -7.183594 58.414062 -3.507812 50.03125 -3.507812 C 41.308594 -3.507812 33.011719 -6.925781 27.195312 -13.597656 C 18.21875 -23.863281 15.992188 -38.828125 16.933594 -51.914062 C 18.132812 -70.730469 29.078125 -88.433594 48.152344 -88.433594 C 55.25 -88.433594 62.347656 -85.269531 67.992188 -81.164062 C 68.335938 -80.90625 68.933594 -80.820312 69.53125 -80.820312 C 72.269531 -80.820312 76.460938 -83.042969 73.980469 -84.839844 C 66.878906 -90.058594 58.328125 -92.792969 49.691406 -92.792969 C 29.25 -92.792969 14.027344 -77.914062 10.347656 -57.984375 C 7.441406 -42.507812 9.578125 -25.144531 18.21875 -13.257812 C 24.714844 -4.277344 35.152344 0.941406 46.183594 1.027344 C 58.242188 1.113281 70.558594 -3.933594 78 -13.597656 C 79.109375 -15.050781 77.058594 -15.992188 75.945312 -15.992188 Z M 75.945312 -15.992188 "/></g></g></g><g fill="#000000" fill-opacity="1"><g transform="translate(178.585371, 239.999984)"><g><path d="M 63.628906 -65.769531 C 65.425781 -82.875 54.734375 -92.878906 39.683594 -92.878906 C 30.875 -92.878906 20.441406 -89.542969 14.882812 -82.445312 C 10.175781 -76.542969 9.152344 -66.964844 13.257812 -60.722656 C 16.933594 -54.90625 23.777344 -51.828125 29.847656 -48.921875 C 36.859375 -45.585938 44.128906 -42.421875 49.859375 -37.03125 C 56.359375 -30.875 60.464844 -21.382812 56.359375 -12.828125 C 52.855469 -5.644531 45.585938 -2.652344 38.402344 -2.652344 C 36.433594 -2.652344 34.550781 -2.824219 32.671875 -3.25 C 22.40625 -5.386719 15.394531 -12.828125 15.90625 -23.175781 C 15.992188 -25.488281 16.335938 -27.882812 16.933594 -30.191406 C 17.191406 -31.132812 16.164062 -31.472656 14.882812 -31.472656 C 12.828125 -31.472656 9.835938 -30.53125 9.492188 -29.078125 C 5.472656 -12.058594 13.941406 -1.539062 30.105469 0.769531 C 32.242188 1.027344 34.464844 1.199219 36.605469 1.199219 C 40.195312 1.199219 43.789062 0.769531 47.125 -0.34375 C 57.300781 -3.675781 66.539062 -12.144531 65.511719 -23.605469 C 64.742188 -32.070312 58.585938 -39.257812 51.828125 -43.789062 C 45.328125 -48.152344 37.972656 -51.058594 31.046875 -54.652344 C 25.570312 -57.558594 19.757812 -61.40625 18.472656 -67.90625 C 16.078125 -80.308594 25.316406 -89.03125 37.03125 -89.03125 C 47.039062 -89.03125 54.90625 -81.503906 56.191406 -72.183594 C 56.445312 -69.617188 56.445312 -67.136719 56.191406 -64.742188 C 56.019531 -63.714844 57.046875 -63.289062 58.414062 -63.289062 C 60.550781 -63.289062 63.460938 -64.398438 63.628906 -65.769531 Z M 63.628906 -65.769531 "/></g></g></g></svg>