<svg xmlns="http://www.w3.org/2000/svg" xmlns:xlink="http://www.w3.org/1999/xlink" width="500" zoomAndPan="magnify" viewBox="0 0 375 374.999991" height="500" preserveAspectRatio="xMidYMid meet" version="1.0"><defs><g/><clipPath id="fd314468cb"><path d="M 53 58 L 322 58 L 322 322 L 53 322 Z M 53 58 " clip-rule="nonzero"/></clipPath><clipPath id="dc95d49ebd"><path d="M 201.539062 -1.40625 L 321.152344 124.960938 L 113.082031 321.910156 L -6.53125 195.542969 Z M 201.539062 -1.40625 " clip-rule="nonzero"/></clipPath><clipPath id="84fd606fb0"><path d="M 201.539062 -1.40625 L 398.488281 206.664062 L 190.417969 403.613281 L -6.53125 195.542969 Z M 201.539062 -1.40625 " clip-rule="nonzero"/></clipPath><clipPath id="7833587012"><path d="M 201.539062 -1.40625 L 398.488281 206.664062 L 190.417969 403.613281 L -6.53125 195.542969 Z M 201.539062 -1.40625 " clip-rule="nonzero"/></clipPath><clipPath id="447b086dc0"><path d="M 248.695312 225.460938 L 261.882812 225.460938 L 261.882812 238.648438 L 248.695312 238.648438 Z M 248.695312 225.460938 " clip-rule="nonzero"/></clipPath><clipPath id="92d4afd0e5"><path d="M 255.289062 225.460938 C 251.648438 225.460938 248.695312 228.414062 248.695312 232.054688 C 248.695312 235.695312 251.648438 238.648438 255.289062 238.648438 C 258.933594 238.648438 261.882812 235.695312 261.882812 232.054688 C 261.882812 228.414062 258.933594 225.460938 255.289062 225.460938 " clip-rule="nonzero"/></clipPath></defs><g clip-path="url(#fd314468cb)"><g clip-path="url(#dc95d49ebd)"><g clip-path="url(#84fd606fb0)"><g clip-path="url(#7833587012)"><path fill="#000000" d="M 260.621094 324.960938 C 249.144531 330.820312 236.8125 334.859375 224.230469 337.289062 C 213.941406 339.207031 203.496094 340.195312 193.046875 340.089844 C 191.65625 340.113281 190.269531 339.984375 188.878906 339.925781 C 187.492188 339.84375 186.101562 339.804688 184.714844 339.691406 L 180.5625 339.289062 L 178.488281 339.085938 L 176.421875 338.792969 L 172.292969 338.21875 C 170.921875 337.996094 169.558594 337.714844 168.1875 337.472656 C 165.441406 337.03125 162.742188 336.34375 160.023438 335.75 C 159.632812 335.664062 159.222656 335.570312 158.796875 335.472656 C 158.375 335.355469 157.9375 335.234375 157.480469 335.105469 C 156.566406 334.851562 155.585938 334.574219 154.542969 334.28125 C 152.441406 333.738281 150.152344 332.90625 147.632812 332.058594 C 147.003906 331.839844 146.355469 331.636719 145.707031 331.390625 C 145.0625 331.132812 144.40625 330.875 143.738281 330.609375 C 142.402344 330.074219 141.019531 329.519531 139.589844 328.949219 C 136.808594 327.640625 133.785156 326.398438 130.789062 324.75 C 118.570312 318.621094 105.453125 308.953125 94.339844 297.308594 C 83.324219 285.574219 74.390625 271.945312 68.941406 259.410156 C 67.460938 256.328125 66.382812 253.238281 65.230469 250.386719 C 64.738281 248.929688 64.261719 247.519531 63.800781 246.15625 C 63.574219 245.472656 63.347656 244.804688 63.128906 244.148438 C 62.917969 243.488281 62.753906 242.828125 62.566406 242.191406 C 61.859375 239.625 61.152344 237.296875 60.726562 235.167969 C 60.492188 234.109375 60.269531 233.113281 60.066406 232.191406 C 59.964844 231.730469 59.863281 231.285156 59.769531 230.855469 C 59.699219 230.425781 59.628906 230.007812 59.5625 229.617188 C 57.710938 219.328125 56.792969 208.886719 56.96875 198.4375 C 57.269531 187.308594 58.9375 176.25 61.550781 165.417969 C 64.664062 152.992188 69.375 140.898438 75.855469 129.761719 C 82.207031 118.542969 90.402344 108.378906 99.71875 99.40625 C 109.191406 90.59375 119.785156 82.972656 131.335938 77.246094 C 142.816406 71.382812 155.148438 67.347656 167.726562 64.917969 C 178.015625 63 188.460938 62.011719 198.910156 62.117188 C 200.300781 62.089844 201.6875 62.222656 203.078125 62.277344 C 204.464844 62.359375 205.855469 62.398438 207.242188 62.511719 L 211.394531 62.917969 L 213.46875 63.117188 L 215.535156 63.414062 L 219.664062 63.988281 C 221.039062 64.210938 222.398438 64.488281 223.769531 64.734375 C 226.515625 65.175781 229.214844 65.859375 231.933594 66.457031 C 232.324219 66.542969 232.734375 66.636719 233.160156 66.730469 C 233.582031 66.851562 234.019531 66.972656 234.480469 67.097656 C 235.390625 67.355469 236.371094 67.628906 237.414062 67.925781 C 239.519531 68.464844 241.804688 69.300781 244.324219 70.144531 C 244.953125 70.367188 245.601562 70.566406 246.25 70.816406 C 246.894531 71.070312 247.550781 71.332031 248.21875 71.597656 C 249.554688 72.132812 250.9375 72.683594 252.367188 73.253906 C 255.148438 74.5625 258.175781 75.808594 261.167969 77.457031 C 273.386719 83.585938 286.503906 93.253906 297.617188 104.898438 C 308.632812 116.632812 317.566406 130.261719 323.015625 142.796875 C 324.496094 145.878906 325.574219 148.96875 326.730469 151.816406 C 327.21875 153.273438 327.695312 154.6875 328.15625 156.050781 C 328.382812 156.730469 328.609375 157.402344 328.828125 158.058594 C 329.042969 158.71875 329.207031 159.378906 329.390625 160.015625 C 330.097656 162.578125 330.804688 164.910156 331.230469 167.039062 C 331.464844 168.097656 331.6875 169.089844 331.894531 170.015625 C 331.996094 170.476562 332.09375 170.921875 332.1875 171.351562 C 332.257812 171.78125 332.328125 172.195312 332.394531 172.589844 C 334.246094 182.878906 335.164062 193.320312 334.988281 203.769531 C 334.6875 214.898438 333.019531 225.953125 330.40625 236.785156 C 327.292969 249.214844 322.582031 261.308594 316.101562 272.445312 C 309.75 283.664062 301.558594 293.824219 292.238281 302.800781 C 282.765625 311.609375 272.171875 319.234375 260.621094 324.960938 Z M 294.519531 305.074219 L 294.527344 305.0625 C 304.039062 295.898438 312.417969 285.523438 318.921875 274.066406 C 325.558594 262.6875 330.378906 250.324219 333.523438 237.613281 L 334.894531 231.636719 C 334.894531 231.636719 335.21875 229.980469 335.703125 227.496094 C 336.253906 225.019531 336.644531 221.664062 337.152344 218.328125 C 337.457031 214.96875 337.878906 211.617188 337.933594 209.085938 C 338.058594 206.558594 338.140625 204.875 338.140625 204.875 C 338.140625 204.875 338.15625 204.453125 338.160156 203.71875 C 338.167969 202.980469 338.179688 201.925781 338.195312 200.660156 C 338.285156 198.128906 338.097656 194.761719 337.984375 191.390625 C 337.875 189.710938 337.707031 188.03125 337.578125 186.453125 C 337.511719 185.667969 337.445312 184.90625 337.382812 184.183594 C 337.289062 183.464844 337.195312 182.785156 337.113281 182.160156 C 336.777344 179.652344 336.554688 177.980469 336.554688 177.980469 C 336.554688 177.980469 336.527344 177.597656 336.421875 177.03125 C 336.324219 176.464844 336.195312 175.710938 336.070312 174.957031 C 335.8125 173.449219 335.554688 171.9375 335.554688 171.9375 C 335.488281 171.535156 335.417969 171.109375 335.347656 170.667969 C 335.25 170.230469 335.152344 169.773438 335.050781 169.300781 C 334.839844 168.355469 334.617188 167.335938 334.378906 166.253906 C 333.945312 164.074219 333.230469 161.6875 332.507812 159.0625 C 332.320312 158.410156 332.148438 157.734375 331.933594 157.058594 C 331.710938 156.386719 331.480469 155.699219 331.246094 155 C 330.777344 153.605469 330.292969 152.160156 329.792969 150.667969 C 328.613281 147.75 327.511719 144.585938 326 141.429688 C 320.429688 128.59375 311.289062 114.632812 300.015625 102.628906 C 288.648438 90.714844 275.207031 80.820312 262.695312 74.554688 C 259.628906 72.871094 256.53125 71.597656 253.683594 70.261719 C 252.21875 69.675781 250.804688 69.113281 249.433594 68.570312 C 248.75 68.296875 248.078125 68.03125 247.417969 67.769531 C 246.757812 67.515625 246.089844 67.3125 245.449219 67.085938 C 242.867188 66.222656 240.523438 65.375 238.371094 64.824219 C 237.304688 64.527344 236.300781 64.246094 235.363281 63.988281 C 234.898438 63.859375 234.449219 63.734375 234.015625 63.617188 C 233.578125 63.519531 233.160156 63.425781 232.761719 63.335938 C 232.761719 63.335938 231.265625 62.996094 229.773438 62.660156 C 229.027344 62.488281 228.28125 62.320312 227.71875 62.195312 C 227.164062 62.058594 226.78125 62.007812 226.78125 62.007812 C 226.78125 62.007812 225.125 61.691406 222.640625 61.222656 C 222.019531 61.101562 221.347656 60.972656 220.632812 60.839844 C 219.917969 60.738281 219.160156 60.628906 218.378906 60.519531 C 216.808594 60.304688 215.144531 60.046875 213.46875 59.84375 C 210.109375 59.546875 206.757812 59.171875 204.226562 59.125 C 202.960938 59.070312 201.910156 59.023438 201.171875 58.992188 C 200.4375 58.957031 200.015625 58.949219 200.015625 58.949219 C 200.015625 58.949219 198.328125 58.9375 195.796875 58.921875 C 193.269531 58.839844 189.898438 59.078125 186.527344 59.195312 C 183.167969 59.523438 179.792969 59.726562 177.292969 60.140625 C 174.785156 60.488281 173.113281 60.71875 173.113281 60.71875 L 167.070312 61.761719 C 154.210938 64.207031 141.597656 68.339844 129.875 74.339844 C 118.078125 80.207031 107.257812 88.003906 97.585938 96.996094 L 97.574219 97.003906 L 97.503906 97.066406 L 97.4375 97.132812 L 97.429688 97.144531 C 87.917969 106.308594 79.539062 116.683594 73.035156 128.140625 C 66.398438 139.519531 61.582031 151.882812 58.433594 164.589844 L 57.0625 170.566406 C 57.0625 170.566406 56.738281 172.226562 56.253906 174.710938 C 55.703125 177.183594 55.3125 180.542969 54.804688 183.878906 C 54.503906 187.238281 54.078125 190.585938 54.023438 193.121094 C 53.898438 195.644531 53.816406 197.328125 53.816406 197.328125 C 53.816406 197.328125 53.800781 197.75 53.796875 198.488281 C 53.789062 199.226562 53.777344 200.28125 53.765625 201.542969 C 53.671875 204.078125 53.859375 207.445312 53.972656 210.816406 C 54.082031 212.496094 54.25 214.175781 54.378906 215.75 C 54.445312 216.539062 54.511719 217.300781 54.574219 218.023438 C 54.667969 218.742188 54.761719 219.417969 54.84375 220.046875 C 55.179688 222.554688 55.402344 224.226562 55.402344 224.226562 C 55.402344 224.226562 55.433594 224.609375 55.539062 225.171875 C 55.632812 225.738281 55.761719 226.492188 55.886719 227.246094 C 56.144531 228.757812 56.402344 230.269531 56.402344 230.269531 C 56.46875 230.671875 56.539062 231.097656 56.613281 231.539062 C 56.707031 231.976562 56.804688 232.433594 56.910156 232.90625 C 57.117188 233.851562 57.339844 234.871094 57.578125 235.953125 C 58.011719 238.132812 58.730469 240.519531 59.449219 243.144531 C 59.640625 243.796875 59.808594 244.472656 60.023438 245.148438 C 60.25 245.820312 60.476562 246.507812 60.710938 247.203125 C 61.179688 248.601562 61.664062 250.046875 62.167969 251.539062 C 63.34375 254.457031 64.445312 257.617188 65.957031 260.777344 C 71.53125 273.609375 80.671875 287.570312 91.941406 299.578125 C 103.3125 311.492188 116.75 321.386719 129.261719 327.652344 C 132.328125 329.335938 135.425781 330.609375 138.277344 331.945312 C 139.738281 332.527344 141.15625 333.09375 142.523438 333.636719 C 143.207031 333.90625 143.878906 334.175781 144.539062 334.433594 C 145.199219 334.6875 145.867188 334.894531 146.507812 335.117188 C 149.089844 335.984375 151.433594 336.832031 153.585938 337.382812 C 154.652344 337.679688 155.65625 337.957031 156.59375 338.21875 C 157.058594 338.347656 157.507812 338.472656 157.941406 338.589844 C 158.378906 338.6875 158.796875 338.78125 159.195312 338.871094 C 159.195312 338.871094 160.691406 339.207031 162.183594 339.546875 C 162.929688 339.714844 163.675781 339.886719 164.238281 340.011719 C 164.792969 340.148438 165.175781 340.199219 165.175781 340.199219 C 165.175781 340.199219 166.832031 340.511719 169.316406 340.984375 C 169.9375 341.101562 170.609375 341.230469 171.324219 341.367188 C 172.039062 341.46875 172.796875 341.574219 173.582031 341.6875 C 175.148438 341.898438 176.8125 342.160156 178.488281 342.359375 C 181.847656 342.660156 185.199219 343.03125 187.730469 343.078125 C 188.996094 343.136719 190.046875 343.183594 190.785156 343.214844 C 191.523438 343.25 191.941406 343.257812 191.941406 343.257812 C 191.941406 343.257812 193.628906 343.265625 196.160156 343.28125 C 198.691406 343.367188 202.058594 343.128906 205.429688 343.011719 C 208.789062 342.683594 212.164062 342.480469 214.664062 342.0625 C 217.171875 341.71875 218.84375 341.484375 218.84375 341.484375 L 224.886719 340.445312 C 237.746094 338 250.359375 333.867188 262.082031 327.867188 C 273.878906 322 284.699219 314.203125 294.375 305.207031 L 294.382812 305.203125 L 294.453125 305.136719 L 294.519531 305.074219 " fill-opacity="1" fill-rule="nonzero"/></g></g></g></g><g clip-path="url(#447b086dc0)"><g clip-path="url(#92d4afd0e5)"><path fill="#000000" d="M 248.695312 225.460938 L 261.882812 225.460938 L 261.882812 238.648438 L 248.695312 238.648438 Z M 248.695312 225.460938 " fill-opacity="1" fill-rule="nonzero"/></g></g><g fill="#000000" fill-opacity="1"><g transform="translate(127.085731, 329.275187)"><g><path d="M 4.03125 -7.21875 C 4.4375 -8.125 5 -8.941406 5.71875 -9.671875 C 6.445312 -10.410156 7.28125 -10.984375 8.21875 -11.390625 C 9.15625 -11.804688 10.171875 -12.023438 11.265625 -12.046875 C 12.359375 -12.078125 13.484375 -11.832031 14.640625 -11.3125 C 16.003906 -10.695312 17.050781 -9.863281 17.78125 -8.8125 C 18.507812 -7.769531 18.894531 -6.660156 18.9375 -5.484375 L 16.046875 -4.953125 C 16.046875 -5.453125 15.96875 -5.90625 15.8125 -6.3125 C 15.664062 -6.726562 15.46875 -7.09375 15.21875 -7.40625 C 14.976562 -7.71875 14.703125 -7.988281 14.390625 -8.21875 C 14.078125 -8.445312 13.753906 -8.632812 13.421875 -8.78125 C 12.691406 -9.113281 11.992188 -9.253906 11.328125 -9.203125 C 10.671875 -9.160156 10.0625 -8.988281 9.5 -8.6875 C 8.9375 -8.382812 8.425781 -7.972656 7.96875 -7.453125 C 7.519531 -6.941406 7.164062 -6.394531 6.90625 -5.8125 C 6.613281 -5.15625 6.4375 -4.476562 6.375 -3.78125 C 6.3125 -3.082031 6.367188 -2.414062 6.546875 -1.78125 C 6.722656 -1.15625 7.015625 -0.582031 7.421875 -0.0625 C 7.828125 0.445312 8.347656 0.847656 8.984375 1.140625 C 9.328125 1.285156 9.695312 1.398438 10.09375 1.484375 C 10.488281 1.578125 10.882812 1.601562 11.28125 1.5625 C 11.6875 1.53125 12.09375 1.429688 12.5 1.265625 C 12.914062 1.109375 13.300781 0.863281 13.65625 0.53125 L 15.40625 2.953125 C 14.914062 3.398438 14.351562 3.738281 13.71875 3.96875 C 13.09375 4.195312 12.4375 4.332031 11.75 4.375 C 11.0625 4.414062 10.375 4.367188 9.6875 4.234375 C 9 4.109375 8.351562 3.914062 7.75 3.65625 C 6.6875 3.175781 5.820312 2.515625 5.15625 1.671875 C 4.488281 0.835938 4 -0.078125 3.6875 -1.078125 C 3.375 -2.085938 3.242188 -3.125 3.296875 -4.1875 C 3.347656 -5.257812 3.59375 -6.269531 4.03125 -7.21875 Z M 4.03125 -7.21875 "/></g></g></g><g fill="#000000" fill-opacity="1"><g transform="translate(151.185831, 339.116007)"><g><path d="M 10.078125 -14.21875 L 12.765625 -13.53125 L 14.8125 3.71875 L 11.671875 2.9375 L 11.1875 -1.359375 L 5.6875 -2.734375 L 3.265625 0.8125 L 0.109375 0.03125 Z M 11.171875 -3.65625 L 10.546875 -10.390625 L 6.75 -4.765625 Z M 11.171875 -3.65625 "/></g></g></g><g fill="#000000" fill-opacity="1"><g transform="translate(176.289687, 344.448932)"><g><path d="M 12.21875 -11.109375 C 12.125 -11.210938 11.941406 -11.363281 11.671875 -11.5625 C 11.410156 -11.769531 11.082031 -11.976562 10.6875 -12.1875 C 10.289062 -12.394531 9.863281 -12.578125 9.40625 -12.734375 C 8.945312 -12.890625 8.476562 -12.988281 8 -13.03125 C 7.125 -13.09375 6.457031 -12.976562 6 -12.6875 C 5.550781 -12.40625 5.304688 -11.972656 5.265625 -11.390625 C 5.242188 -11.054688 5.304688 -10.769531 5.453125 -10.53125 C 5.597656 -10.300781 5.816406 -10.085938 6.109375 -9.890625 C 6.398438 -9.703125 6.769531 -9.523438 7.21875 -9.359375 C 7.675781 -9.191406 8.203125 -9.003906 8.796875 -8.796875 C 9.566406 -8.535156 10.265625 -8.253906 10.890625 -7.953125 C 11.523438 -7.660156 12.050781 -7.316406 12.46875 -6.921875 C 12.894531 -6.535156 13.210938 -6.078125 13.421875 -5.546875 C 13.628906 -5.015625 13.703125 -4.375 13.640625 -3.625 C 13.578125 -2.757812 13.359375 -2.03125 12.984375 -1.4375 C 12.609375 -0.851562 12.128906 -0.390625 11.546875 -0.046875 C 10.960938 0.285156 10.300781 0.515625 9.5625 0.640625 C 8.820312 0.765625 8.0625 0.796875 7.28125 0.734375 C 6.0625 0.640625 4.875 0.363281 3.71875 -0.09375 C 2.5625 -0.550781 1.535156 -1.148438 0.640625 -1.890625 L 2.234375 -4.484375 C 2.367188 -4.335938 2.601562 -4.140625 2.9375 -3.890625 C 3.269531 -3.640625 3.671875 -3.382812 4.140625 -3.125 C 4.617188 -2.875 5.148438 -2.648438 5.734375 -2.453125 C 6.316406 -2.265625 6.921875 -2.148438 7.546875 -2.109375 C 9.273438 -1.972656 10.179688 -2.457031 10.265625 -3.5625 C 10.285156 -3.90625 10.207031 -4.207031 10.03125 -4.46875 C 9.851562 -4.726562 9.585938 -4.960938 9.234375 -5.171875 C 8.890625 -5.378906 8.460938 -5.578125 7.953125 -5.765625 C 7.441406 -5.960938 6.878906 -6.175781 6.265625 -6.40625 C 5.492188 -6.675781 4.832031 -6.957031 4.28125 -7.25 C 3.726562 -7.550781 3.273438 -7.882812 2.921875 -8.25 C 2.578125 -8.613281 2.328125 -9.023438 2.171875 -9.484375 C 2.015625 -9.953125 1.960938 -10.5 2.015625 -11.125 C 2.078125 -11.945312 2.28125 -12.664062 2.625 -13.28125 C 2.976562 -13.894531 3.4375 -14.394531 4 -14.78125 C 4.570312 -15.164062 5.222656 -15.441406 5.953125 -15.609375 C 6.691406 -15.773438 7.472656 -15.828125 8.296875 -15.765625 C 9.421875 -15.679688 10.453125 -15.421875 11.390625 -14.984375 C 12.328125 -14.554688 13.132812 -14.070312 13.8125 -13.53125 Z M 12.21875 -11.109375 "/></g></g></g><g fill="#000000" fill-opacity="1"><g transform="translate(200.558481, 345.410116)"><g><path d="M 10.21875 -12.984375 C 10.101562 -13.078125 9.894531 -13.203125 9.59375 -13.359375 C 9.300781 -13.515625 8.945312 -13.660156 8.53125 -13.796875 C 8.113281 -13.929688 7.660156 -14.035156 7.171875 -14.109375 C 6.679688 -14.179688 6.195312 -14.195312 5.71875 -14.15625 C 4.84375 -14.070312 4.207031 -13.851562 3.8125 -13.5 C 3.425781 -13.15625 3.257812 -12.691406 3.3125 -12.109375 C 3.34375 -11.773438 3.445312 -11.503906 3.625 -11.296875 C 3.8125 -11.085938 4.0625 -10.910156 4.375 -10.765625 C 4.695312 -10.628906 5.09375 -10.515625 5.5625 -10.421875 C 6.039062 -10.328125 6.59375 -10.234375 7.21875 -10.140625 C 8.019531 -10.003906 8.753906 -9.84375 9.421875 -9.65625 C 10.097656 -9.476562 10.675781 -9.226562 11.15625 -8.90625 C 11.632812 -8.582031 12.015625 -8.175781 12.296875 -7.6875 C 12.585938 -7.195312 12.769531 -6.582031 12.84375 -5.84375 C 12.914062 -4.976562 12.816406 -4.222656 12.546875 -3.578125 C 12.285156 -2.929688 11.894531 -2.394531 11.375 -1.96875 C 10.851562 -1.539062 10.238281 -1.203125 9.53125 -0.953125 C 8.832031 -0.710938 8.085938 -0.554688 7.296875 -0.484375 C 6.085938 -0.367188 4.875 -0.441406 3.65625 -0.703125 C 2.4375 -0.960938 1.328125 -1.378906 0.328125 -1.953125 L 1.453125 -4.796875 C 1.609375 -4.671875 1.875 -4.515625 2.25 -4.328125 C 2.625 -4.140625 3.066406 -3.957031 3.578125 -3.78125 C 4.085938 -3.601562 4.640625 -3.46875 5.234375 -3.375 C 5.835938 -3.28125 6.453125 -3.257812 7.078125 -3.3125 C 8.804688 -3.46875 9.625 -4.101562 9.53125 -5.21875 C 9.5 -5.5625 9.367188 -5.84375 9.140625 -6.0625 C 8.921875 -6.289062 8.625 -6.476562 8.25 -6.625 C 7.875 -6.78125 7.414062 -6.90625 6.875 -7 C 6.34375 -7.101562 5.753906 -7.222656 5.109375 -7.359375 C 4.316406 -7.492188 3.625 -7.660156 3.03125 -7.859375 C 2.4375 -8.066406 1.9375 -8.320312 1.53125 -8.625 C 1.125 -8.925781 0.804688 -9.289062 0.578125 -9.71875 C 0.347656 -10.15625 0.203125 -10.6875 0.140625 -11.3125 C 0.0664062 -12.132812 0.148438 -12.875 0.390625 -13.53125 C 0.628906 -14.195312 1 -14.769531 1.5 -15.25 C 2 -15.726562 2.59375 -16.109375 3.28125 -16.390625 C 3.976562 -16.671875 4.738281 -16.851562 5.5625 -16.9375 C 6.695312 -17.039062 7.757812 -16.953125 8.75 -16.671875 C 9.75 -16.398438 10.625 -16.054688 11.375 -15.640625 Z M 10.21875 -12.984375 "/></g></g></g><g fill="#000000" fill-opacity="1"><g transform="translate(224.693647, 342.364039)"><g><path d="M 1.875 -17.3125 L 4.5625 -18.03125 L 14.734375 -3.96875 L 11.625 -3.125 L 9.109375 -6.640625 L 3.625 -5.171875 L 3.25 -0.875 L 0.109375 -0.03125 Z M 7.96875 -8.625 L 4.15625 -14.203125 L 3.5625 -7.4375 Z M 7.96875 -8.625 "/></g></g></g><g fill="#000000" fill-opacity="1"><g transform="translate(249.333614, 334.837377)"><g><path d="M -0.125 -11.484375 L 4.375 -2.09375 L 1.515625 -0.734375 L -5.5 -15.375 L -3.28125 -16.421875 L 8.953125 -10.46875 L 4.359375 -20.046875 L 7.203125 -21.40625 L 14.203125 -6.796875 L 11.890625 -5.703125 Z M -0.125 -11.484375 "/></g></g></g><g fill="#000000" fill-opacity="1"><g transform="translate(273.997909, 321.884788)"><g><path d="M 1.359375 -1 L -8.25 -14.078125 L -3.484375 -17.578125 C -2.421875 -18.359375 -1.359375 -18.875 -0.296875 -19.125 C 0.753906 -19.375 1.765625 -19.398438 2.734375 -19.203125 C 3.710938 -19.003906 4.625 -18.609375 5.46875 -18.015625 C 6.320312 -17.429688 7.078125 -16.691406 7.734375 -15.796875 C 8.472656 -14.796875 8.984375 -13.78125 9.265625 -12.75 C 9.554688 -11.726562 9.628906 -10.722656 9.484375 -9.734375 C 9.335938 -8.753906 8.984375 -7.816406 8.421875 -6.921875 C 7.867188 -6.023438 7.101562 -5.21875 6.125 -4.5 Z M 5.171875 -13.90625 C 4.722656 -14.519531 4.21875 -15.03125 3.65625 -15.4375 C 3.09375 -15.84375 2.503906 -16.113281 1.890625 -16.25 C 1.273438 -16.382812 0.644531 -16.378906 0 -16.234375 C -0.632812 -16.097656 -1.253906 -15.804688 -1.859375 -15.359375 L -4.078125 -13.734375 L 2.265625 -5.109375 L 4.484375 -6.734375 C 5.097656 -7.191406 5.566406 -7.707031 5.890625 -8.28125 C 6.222656 -8.851562 6.40625 -9.453125 6.4375 -10.078125 C 6.476562 -10.703125 6.390625 -11.34375 6.171875 -12 C 5.960938 -12.65625 5.628906 -13.289062 5.171875 -13.90625 Z M 5.171875 -13.90625 "/></g></g></g><g fill="#000000" fill-opacity="1"><g transform="translate(294.936638, 305.273669)"><g><path d="M 1.15625 -1.21875 L -10.640625 -12.375 L -5.703125 -17.609375 C -5.191406 -18.140625 -4.601562 -18.53125 -3.9375 -18.78125 C -3.269531 -19.03125 -2.59375 -19.144531 -1.90625 -19.125 C -1.226562 -19.101562 -0.566406 -18.960938 0.078125 -18.703125 C 0.734375 -18.441406 1.300781 -18.082031 1.78125 -17.625 C 2.53125 -16.914062 3.039062 -16.070312 3.3125 -15.09375 C 3.582031 -14.113281 3.546875 -13.171875 3.203125 -12.265625 L 10.171875 -10.765625 L 7.734375 -8.1875 L 1.515625 -9.515625 L -0.625 -7.25 L 3.328125 -3.515625 Z M -2.625 -9.15625 L 0.09375 -12.03125 C 0.289062 -12.238281 0.421875 -12.476562 0.484375 -12.75 C 0.554688 -13.03125 0.566406 -13.316406 0.515625 -13.609375 C 0.472656 -13.910156 0.375 -14.207031 0.21875 -14.5 C 0.0703125 -14.800781 -0.128906 -15.078125 -0.390625 -15.328125 C -0.671875 -15.597656 -0.96875 -15.796875 -1.28125 -15.921875 C -1.601562 -16.054688 -1.921875 -16.128906 -2.234375 -16.140625 C -2.554688 -16.148438 -2.851562 -16.101562 -3.125 -16 C -3.40625 -15.894531 -3.640625 -15.738281 -3.828125 -15.53125 L -6.453125 -12.765625 Z M -2.625 -9.15625 "/></g></g></g><g fill="#000000" fill-opacity="1"><g transform="translate(311.821773, 286.11084)"><g><path d="M -10.09375 -14.1875 L -8.5625 -16.515625 L 8.390625 -12.75 L 6.609375 -10.046875 L 2.40625 -11 L -0.71875 -6.265625 L 1.84375 -2.8125 L 0.0625 -0.09375 Z M 0.234375 -11.734375 L -6.328125 -13.390625 L -2.28125 -7.921875 Z M 0.234375 -11.734375 "/></g></g></g><g fill="#000000" fill-opacity="1"><g transform="translate(324.912516, 264.299222)"><g/></g></g><g fill="#000000" fill-opacity="1"><g transform="translate(331.203884, 250.058369)"><g><path d="M -8 -14.4375 C -8.132812 -14.375 -8.332031 -14.234375 -8.59375 -14.015625 C -8.851562 -13.796875 -9.128906 -13.519531 -9.421875 -13.1875 C -9.710938 -12.851562 -9.984375 -12.476562 -10.234375 -12.0625 C -10.492188 -11.644531 -10.695312 -11.207031 -10.84375 -10.75 C -11.113281 -9.914062 -11.160156 -9.25 -10.984375 -8.75 C -10.804688 -8.25 -10.4375 -7.910156 -9.875 -7.734375 C -9.5625 -7.640625 -9.273438 -7.632812 -9.015625 -7.71875 C -8.753906 -7.8125 -8.492188 -7.976562 -8.234375 -8.21875 C -7.984375 -8.457031 -7.722656 -8.773438 -7.453125 -9.171875 C -7.179688 -9.578125 -6.882812 -10.046875 -6.5625 -10.578125 C -6.125 -11.265625 -5.6875 -11.882812 -5.25 -12.4375 C -4.820312 -12.988281 -4.367188 -13.421875 -3.890625 -13.734375 C -3.410156 -14.046875 -2.890625 -14.238281 -2.328125 -14.3125 C -1.765625 -14.394531 -1.125 -14.320312 -0.40625 -14.09375 C 0.414062 -13.832031 1.070312 -13.453125 1.5625 -12.953125 C 2.050781 -12.460938 2.390625 -11.894531 2.578125 -11.25 C 2.773438 -10.601562 2.847656 -9.90625 2.796875 -9.15625 C 2.753906 -8.414062 2.613281 -7.664062 2.375 -6.90625 C 2.007812 -5.75 1.472656 -4.660156 0.765625 -3.640625 C 0.0546875 -2.617188 -0.753906 -1.757812 -1.671875 -1.0625 L -3.859375 -3.1875 C -3.679688 -3.289062 -3.429688 -3.476562 -3.109375 -3.75 C -2.796875 -4.019531 -2.460938 -4.351562 -2.109375 -4.75 C -1.753906 -5.15625 -1.410156 -5.617188 -1.078125 -6.140625 C -0.753906 -6.660156 -0.5 -7.21875 -0.3125 -7.8125 C 0.207031 -9.46875 -0.0625 -10.460938 -1.125 -10.796875 C -1.457031 -10.898438 -1.769531 -10.894531 -2.0625 -10.78125 C -2.351562 -10.664062 -2.640625 -10.460938 -2.921875 -10.171875 C -3.210938 -9.878906 -3.507812 -9.507812 -3.8125 -9.0625 C -4.113281 -8.613281 -4.445312 -8.113281 -4.8125 -7.5625 C -5.25 -6.875 -5.671875 -6.296875 -6.078125 -5.828125 C -6.492188 -5.359375 -6.921875 -4.992188 -7.359375 -4.734375 C -7.796875 -4.472656 -8.253906 -4.320312 -8.734375 -4.28125 C -9.222656 -4.238281 -9.769531 -4.316406 -10.375 -4.515625 C -11.15625 -4.753906 -11.804688 -5.113281 -12.328125 -5.59375 C -12.847656 -6.070312 -13.234375 -6.632812 -13.484375 -7.28125 C -13.734375 -7.925781 -13.851562 -8.625 -13.84375 -9.375 C -13.832031 -10.132812 -13.703125 -10.90625 -13.453125 -11.6875 C -13.117188 -12.769531 -12.632812 -13.710938 -12 -14.515625 C -11.363281 -15.328125 -10.707031 -16 -10.03125 -16.53125 Z M -8 -14.4375 "/></g></g></g><g fill="#000000" fill-opacity="1"><g transform="translate(337.877161, 226.531512)"><g><path d="M 1.765625 -14.8125 L -8.90625 -16.078125 L -1.46875 -11 L -1.671875 -9.296875 L -10.09375 -6.078125 L 0.578125 -4.8125 L 0.203125 -1.671875 L -15.921875 -3.59375 L -15.53125 -6.96875 L -5.78125 -10.640625 L -14.390625 -16.53125 L -13.984375 -19.875 L 2.140625 -17.953125 Z M 1.765625 -14.8125 "/></g></g></g><g fill="#000000" fill-opacity="1"><g transform="translate(340.070017, 196.639958)"><g><path d="M -0.078125 -1.6875 L -16.296875 -1 L -16.421875 -4.15625 L -0.203125 -4.84375 Z M -0.078125 -1.6875 "/></g></g></g><g fill="#000000" fill-opacity="1"><g transform="translate(338.928592, 180.030808)"><g><path d="M -15.75 -11.15625 L -14.8125 -6.0625 L -1.5625 -8.5 L -1 -5.421875 L -14.25 -2.984375 L -13.3125 2.125 L -16.03125 2.625 L -18.46875 -10.65625 Z M -15.75 -11.15625 "/></g></g></g><g fill="#000000" fill-opacity="1"><g transform="translate(333.705857, 156.07898)"><g><path d="M -20.59375 -8.640625 L -5.40625 -14.359375 L -4.296875 -11.421875 L -10.78125 -8.984375 L -8.1875 -2.09375 L -1.703125 -4.53125 L -0.59375 -1.578125 L -15.78125 4.140625 L -16.890625 1.1875 L -10.75 -1.125 L -13.34375 -8.015625 L -19.484375 -5.703125 Z M -20.59375 -8.640625 "/></g></g></g><g fill="#000000" fill-opacity="1"><g transform="translate(104.167875, 239.999984)"><g><path d="M 75.945312 -15.992188 C 74.234375 -15.992188 72.183594 -15.308594 71.070312 -13.941406 C 65.941406 -7.183594 58.414062 -3.507812 50.03125 -3.507812 C 41.308594 -3.507812 33.011719 -6.925781 27.195312 -13.597656 C 18.21875 -23.863281 15.992188 -38.828125 16.933594 -51.914062 C 18.132812 -70.730469 29.078125 -88.433594 48.152344 -88.433594 C 55.25 -88.433594 62.347656 -85.269531 67.992188 -81.164062 C 68.335938 -80.90625 68.933594 -80.820312 69.53125 -80.820312 C 72.269531 -80.820312 76.460938 -83.042969 73.980469 -84.839844 C 66.878906 -90.058594 58.328125 -92.792969 49.691406 -92.792969 C 29.25 -92.792969 14.027344 -77.914062 10.347656 -57.984375 C 7.441406 -42.507812 9.578125 -25.144531 18.21875 -13.257812 C 24.714844 -4.277344 35.152344 0.941406 46.183594 1.027344 C 58.242188 1.113281 70.558594 -3.933594 78 -13.597656 C 79.109375 -15.050781 77.058594 -15.992188 75.945312 -15.992188 Z M 75.945312 -15.992188 "/></g></g></g><g fill="#000000" fill-opacity="1"><g transform="translate(178.585371, 239.999984)"><g><path d="M 63.628906 -65.769531 C 65.425781 -82.875 54.734375 -92.878906 39.683594 -92.878906 C 30.875 -92.878906 20.441406 -89.542969 14.882812 -82.445312 C 10.175781 -76.542969 9.152344 -66.964844 13.257812 -60.722656 C 16.933594 -54.90625 23.777344 -51.828125 29.847656 -48.921875 C 36.859375 -45.585938 44.128906 -42.421875 49.859375 -37.03125 C 56.359375 -30.875 60.464844 -21.382812 56.359375 -12.828125 C 52.855469 -5.644531 45.585938 -2.652344 38.402344 -2.652344 C 36.433594 -2.652344 34.550781 -2.824219 32.671875 -3.25 C 22.40625 -5.386719 15.394531 -12.828125 15.90625 -23.175781 C 15.992188 -25.488281 16.335938 -27.882812 16.933594 -30.191406 C 17.191406 -31.132812 16.164062 -31.472656 14.882812 -31.472656 C 12.828125 -31.472656 9.835938 -30.53125 9.492188 -29.078125 C 5.472656 -12.058594 13.941406 -1.539062 30.105469 0.769531 C 32.242188 1.027344 34.464844 1.199219 36.605469 1.199219 C 40.195312 1.199219 43.789062 0.769531 47.125 -0.34375 C 57.300781 -3.675781 66.539062 -12.144531 65.511719 -23.605469 C 64.742188 -32.070312 58.585938 -39.257812 51.828125 -43.789062 C 45.328125 -48.152344 37.972656 -51.058594 31.046875 -54.652344 C 25.570312 -57.558594 19.757812 -61.40625 18.472656 -67.90625 C 16.078125 -80.308594 25.316406 -89.03125 37.03125 -89.03125 C 47.039062 -89.03125 54.90625 -81.503906 56.191406 -72.183594 C 56.445312 -69.617188 56.445312 -67.136719 56.191406 -64.742188 C 56.019531 -63.714844 57.046875 -63.289062 58.414062 -63.289062 C 60.550781 -63.289062 63.460938 -64.398438 63.628906 -65.769531 Z M 63.628906 -65.769531 "/></g></g></g></svg>